<?xml version="1.0" encoding="UTF-8"?>
<svg xmlns="http://www.w3.org/2000/svg"
    xmlns:xlink="http://www.w3.org/1999/xlink" viewBox="0 0 1472 578">
    <defs>
        <style>
            @media (prefers-color-scheme: dark) {
                .cls-3 {
                    opacity: 0.9!important;
                    fill: white!important;
                }
            }
            .cls-1{opacity:.9;}.cls-2{fill:url(#_名称未設定グラデーション_6);}.cls-3{opacity:.7;fill:black;}.cls-4{fill:url(#_名称未設定グラデーション_7);}.cls-5{fill:url(#_名称未設定グラデーション_2);}.cls-6{fill:url(#_名称未設定グラデーション_3);}
        </style>
        <linearGradient id="_名称未設定グラデーション_7" x1="225.3" y1="313.5" x2="349" y2="371.6" gradientUnits="userSpaceOnUse">
            <stop offset="0" stop-color="#1fbac4"/>
            <stop offset="1" stop-color="#137177"/>
        </linearGradient>
        <linearGradient id="_名称未設定グラデーション_2" x1="244" y1="191.7" x2="298.2" y2="503.3" gradientUnits="userSpaceOnUse">
            <stop offset="0" stop-color="#1fbac4"/>
            <stop offset="1" stop-color="#137177"/>
        </linearGradient>
        <linearGradient id="_名称未設定グラデーション_6" x1="173.8" y1="146.7" x2="215" y2="172.6" gradientUnits="userSpaceOnUse">
            <stop offset="0" stop-color="#137177"/>
            <stop offset="1" stop-color="#1fbac4"/>
        </linearGradient>
        <linearGradient id="_名称未設定グラデーション_3" x1="256.6" y1="152.1" x2="467.5" y2="234.4" gradientUnits="userSpaceOnUse">
            <stop offset="0" stop-color="#1fbac4"/>
            <stop offset="1" stop-color="#137177"/>
        </linearGradient>
    </defs>
    <g id="Icon">
        <polyline class="cls-4" points="439.4 223.9 250.8 335.6 184.7 484.6 350.5 536.2 443 334.4"/>
        <g class="cls-1">
            <polygon class="cls-5" points="250.8 135 443 334.4 350.5 536.2 184.7 484.6 79 244.3 250.8 135"/>
            <polygon class="cls-2" points="261 44.3 250.8 135 79 244.3 261 44.3"/>
            <polygon class="cls-6" points="443 334.4 439.4 223.9 261 44.3 250.8 135 443 334.4"/>
        </g>
    </g>
    <g id="Text">
        <g>
            <path class="cls-3" d="M550,236.5v69.7h-9.7V159.5h28.4c24,0,42.9,13.2,42.9,38.3s-17.4,38.7-42.7,38.7h-18.9Zm0-8.8h19.4c19.1,0,32.1-11.2,32.1-29.7s-12.3-29.7-33.7-29.7h-17.8v59.4Z"/>
            <path class="cls-3" d="M638,262.5c0,22.9,16.7,37.8,35.6,37.8s25.5-8.6,31.2-20.5l7.5,4.4c-5.3,10.1-17.2,24.4-39.4,24.4s-44.2-20.7-44.2-46.9,21.6-47.3,43.6-47.3,42.5,19.4,42.5,48h-76.8Zm67.5-8.4c-2.2-17.8-15.4-31.2-33.2-31.2s-31.2,13.9-33.7,31.2h66.9Z"/>
            <path class="cls-3" d="M740.8,216.5h8.8v14.1c4.2-7.5,12.3-16.1,27.5-16.1s22.9,9.5,24.9,12.5c4,6.4,4.4,14.7,4.4,22.7v56.5h-8.8v-56.5c0-6.2-.2-13-3.5-18-2-3.3-6.8-8.8-17.6-8.8s-18.7,6.6-22,12.5c-4,7-4.8,15.4-4.8,24.2v46.6h-8.8v-89.8Z"/>
            <path class="cls-3" d="M847.5,224.9v81.4h-8.8v-81.4h-9.9v-8.4h9.9v-32.1h8.8v32.1h15.6v8.4h-15.6Z"/>
            <path class="cls-3" d="M953.7,216.5h8.8v89.8h-8.8v-16.1c-9,13.9-23.3,18.5-35,18.5-23.5,0-43.8-17.8-43.8-47.3s17.6-46.9,43.8-46.9,26.4,5.5,35,17.6v-15.6Zm-69.5,44.2c0,20.2,12.5,39.6,35.2,39.6s34.8-18.9,34.8-39.6-19.6-37.8-35-37.8-35,13.4-35,37.8Z"/>
            <path class="cls-3" d="M1003,356.9h-8.8V216.5h8.8v15.6c8.6-11.7,20.9-17.6,35.2-17.6,27.1,0,43.6,20.2,43.6,46.2s-16.7,48-44,48-32.1-14.1-34.8-18.5v66.7Zm69.5-96.1c0-24.6-16.3-37.8-34.8-37.8s-35.2,12.5-35.2,37.4,12.3,40,35,40,35-17.6,35-39.6Z"/>
            <path class="cls-3" d="M1107.7,216.5h8.8v11.7c3.3-7.7,10.1-13.6,19.8-13.6s6.2,.4,9.5,2.2l-4.4,7.9c-.9-.7-2.6-1.8-6.6-1.8-18,0-18.3,24-18.3,35.2v48.2h-8.8v-89.8Z"/>
            <path class="cls-3" d="M1161.4,186.6c0-4.8,3.5-8.1,7.9-8.1s7.9,3.3,7.9,8.1-3.5,8.1-7.9,8.1-7.9-3.3-7.9-8.1Zm12.3,29.9v89.8h-8.8v-89.8h8.8Z"/>
            <path class="cls-3" d="M1243.7,233c-3.1-7-9.2-10.1-15.6-10.1-10.1,0-15.2,7.7-15.2,14.3s7,11.7,15.8,15.2c9,3.5,17.4,5.9,23.1,13.2,3.7,4.6,4.6,9.5,4.6,14.5,0,20.5-15.4,28.6-29.3,28.6s-27.3-8.8-31-23.8l8.6-2.6c3.1,11.9,12.5,18,22.4,18s20-8.1,20-19.8-6.4-13.9-20-19.4c-9-3.7-15.6-6.6-19.6-11.9-2-2.6-4-6.4-4-11.7,0-13.6,10.3-23.1,24-23.1s19.4,4.8,23.5,14.5l-7.5,4Z"/>
            <path class="cls-3" d="M1278.9,216.5h8.8v11.2c6.8-11.7,17.2-13.2,23.3-13.2,17.6,0,23.3,11.7,25.1,16.3,5.1-10.8,14.7-16.3,26.6-16.3s16.3,3.5,20.2,7.5c7.3,7.3,7.7,17.2,7.7,24.4v59.8h-8.8v-59.8c0-5.9-.4-13.4-5.3-18.5-4-4.2-9.2-5.1-13.4-5.1-23.8,0-24,23.8-24,29.3v54.1h-8.8v-57.6c0-5.7-.4-25.7-19.8-25.7s-22.9,13.6-22.9,31.5v51.9h-8.8v-89.8Z"/>
            <path class="cls-3" d="M626.5,382.7v54h-3.8v-54h-14.9v-3.4h33.6v3.4h-14.9Z"/>
            <path class="cls-3" d="M648.8,373.9h3.4v33.1c1.6-2.9,4.8-6.3,10.8-6.3s9,3.7,9.7,4.9c1.5,2.5,1.7,5.8,1.7,8.9v22.1h-3.4v-22.1c0-2.4,0-5.1-1.4-7.1-.8-1.3-2.7-3.4-6.9-3.4s-7.3,2.6-8.6,4.9c-1.5,2.8-1.9,6-1.9,9.5v18.3h-3.4v-62.8Z"/>
            <path class="cls-3" d="M688.2,419.5c0,9,6.5,14.8,13.9,14.8s10-3.4,12.2-8l2.9,1.7c-2.1,4-6.7,9.6-15.4,9.6s-17.3-8.1-17.3-18.3,8.4-18.5,17-18.5,16.6,7.6,16.6,18.8h-30Zm26.4-3.3c-.9-7-6-12.2-13-12.2s-12.2,5.4-13.2,12.2h26.2Z"/>
            <path class="cls-3" d="M753.8,409.4v27.3h-3.8v-57.4h11.1c9.4,0,16.8,5.2,16.8,15s-6.8,15.2-16.7,15.2h-7.4Zm0-3.4h7.6c7.5,0,12.6-4.4,12.6-11.6s-4.8-11.6-13.2-11.6h-7v23.2Z"/>
            <path class="cls-3" d="M786.9,373.9h3.4v33.1c1.6-2.9,4.8-6.3,10.8-6.3s9,3.7,9.7,4.9c1.6,2.5,1.7,5.8,1.7,8.9v22.1h-3.4v-22.1c0-2.4,0-5.1-1.4-7.1-.8-1.3-2.7-3.4-6.9-3.4s-7.3,2.6-8.6,4.9c-1.5,2.8-1.9,6-1.9,9.5v18.3h-3.4v-62.8Z"/>
            <path class="cls-3" d="M859.5,419.2c0,10.4-8,18.4-18.4,18.4s-18.4-8-18.4-18.4,8-18.4,18.4-18.4,18.4,8,18.4,18.4Zm-3.6,0c0-8.5-6.4-15.2-14.8-15.2s-14.8,6.6-14.8,15.2,6.4,15.2,14.8,15.2,14.8-6.6,14.8-15.2Z"/>
            <path class="cls-3" d="M873.4,404.8v31.9h-3.4v-31.9h-3.9v-3.3h3.9v-12.6h3.4v12.6h6.1v3.3h-6.1Z"/>
            <path class="cls-3" d="M921,419.2c0,10.4-8,18.4-18.4,18.4s-18.4-8-18.4-18.4,8-18.4,18.4-18.4,18.4,8,18.4,18.4Zm-3.6,0c0-8.5-6.4-15.2-14.8-15.2s-14.8,6.6-14.8,15.2,6.4,15.2,14.8,15.2,14.8-6.6,14.8-15.2Z"/>
            <path class="cls-3" d="M956.6,406.3l27.1-27h5l-27.8,27.5,29.4,30h-5.2l-27-27.4-1.5,1.5v25.9h-3.8v-57.4h3.8v27Z"/>
            <path class="cls-3" d="M997.7,401.5h3.4v5.5c1.6-2.9,4.8-6.3,10.8-6.3s9,3.7,9.7,4.9c1.5,2.5,1.7,5.8,1.7,8.9v22.1h-3.4v-22.1c0-2.4,0-5.1-1.4-7.1-.8-1.3-2.7-3.4-6.9-3.4s-7.3,2.6-8.6,4.9c-1.5,2.8-1.9,6-1.9,9.5v18.3h-3.4v-35.1Z"/>
            <path class="cls-3" d="M1070.4,419.2c0,10.4-8,18.4-18.4,18.4s-18.4-8-18.4-18.4,8-18.4,18.4-18.4,18.4,8,18.4,18.4Zm-3.6,0c0-8.5-6.4-15.2-14.8-15.2s-14.8,6.6-14.8,15.2,6.4,15.2,14.8,15.2,14.8-6.6,14.8-15.2Z"/>
            <path class="cls-3" d="M1078.8,401.5l12.1,29,12.1-31.2,12.1,31.2,12.5-29h3.8l-16.3,37.3-12.1-31.2-12.1,31.2-15.9-37.3h3.8Z"/>
            <path class="cls-3" d="M1141.8,373.9v62.8h-3.4v-62.8h3.4Z"/>
            <path class="cls-3" d="M1155.6,419.5c0,9,6.5,14.8,13.9,14.8s10-3.4,12.2-8l2.9,1.7c-2.1,4-6.7,9.6-15.4,9.6s-17.3-8.1-17.3-18.3,8.4-18.5,17-18.5,16.6,7.6,16.6,18.8h-30Zm26.4-3.3c-.9-7-6-12.2-13-12.2s-12.2,5.4-13.2,12.2h26.2Z"/>
            <path class="cls-3" d="M1224.4,373.9h3.4v62.8h-3.4v-6.3c-3.5,5.4-9.1,7.2-13.6,7.2-8.9,0-17.2-6.4-17.2-18.7s8.7-18.2,17.2-18.2,10.8,2.9,13.6,6.9v-33.7Zm-27.2,44.9c0,10.2,6.7,15.5,13.8,15.5s13.6-5.3,13.6-15.5-5.1-14.8-13.8-14.8-13.6,5-13.6,14.8Z"/>
            <path class="cls-3" d="M1272.6,401.5v34.1c0,13.3-6.6,20.8-17.6,20.8s-16.8-5.3-17.2-15.1h3.6c.6,7.3,6.1,11.8,13.6,11.8,13.9,0,14.2-13.9,14.2-17.6v-5c-3.5,4.9-8.9,7-13.9,7-8.6,0-17.3-6.3-17.3-18.5s6.7-18.3,17.7-18.3,10.4,2.6,13.4,6.9v-6.1h3.4Zm-31,17.7c0,8.4,5.3,15.1,13.6,15.1s14.1-6.8,14.1-15.4-5.3-14.9-13.9-14.9-13.8,7.1-13.8,15.2Z"/>
            <path class="cls-3" d="M1286.4,419.5c0,9,6.5,14.8,13.9,14.8s10-3.4,12.2-8l2.9,1.7c-2.1,4-6.7,9.6-15.4,9.6s-17.3-8.1-17.3-18.3,8.4-18.5,17-18.5,16.6,7.6,16.6,18.8h-30Zm26.4-3.3c-.9-7-6-12.2-13-12.2s-12.2,5.4-13.2,12.2h26.2Z"/>
        </g>
    </g>
</svg>